<svg id="svg" version="1.1" width="400" height="400" viewBox="0 0 400 400" xmlns="http://www.w3.org/2000/svg" xmlns:xlink="http://www.w3.org/1999/xlink" ><g id="svgg"><path id="path0" d="M323.212 150.000 C 323.212 150.330,323.387 150.870,323.600 151.200 C 323.945 151.733,323.988 151.733,323.988 151.200 C 323.988 150.870,323.813 150.330,323.600 150.000 C 323.255 149.467,323.212 149.467,323.212 150.000 M50.667 343.067 C 50.252 343.482,50.353 344.800,50.800 344.800 C 51.020 344.800,51.200 344.350,51.200 343.800 C 51.200 342.753,51.108 342.626,50.667 343.067 M349.742 343.800 C 349.711 344.350,349.846 344.800,350.042 344.800 C 350.239 344.800,350.400 344.350,350.400 343.800 C 350.400 342.497,349.818 342.497,349.742 343.800 " stroke="none" fill="#000000" fill-rule="evenodd"></path><path id="path1" d="M90.880 60.480 C 90.609 60.751,90.400 62.048,90.400 63.456 C 90.400 64.829,90.220 66.064,90.000 66.200 C 89.780 66.336,89.600 67.866,89.600 69.600 C 89.600 71.334,89.420 72.864,89.200 73.000 C 88.980 73.136,88.800 74.137,88.800 75.224 C 88.800 76.311,88.620 77.200,88.400 77.200 C 88.175 77.200,88.000 78.325,88.000 79.776 C 88.000 81.193,87.820 82.464,87.600 82.600 C 87.380 82.736,87.200 84.367,87.200 86.224 C 87.200 88.208,87.035 89.600,86.800 89.600 C 86.580 89.600,86.400 90.500,86.400 91.600 C 86.400 92.700,86.220 93.600,86.000 93.600 C 85.771 93.600,85.600 94.800,85.600 96.400 C 85.600 98.000,85.429 99.200,85.200 99.200 C 84.965 99.200,84.800 100.600,84.800 102.600 C 84.800 104.600,84.635 106.000,84.400 106.000 C 84.180 106.000,84.000 106.979,84.000 108.176 C 84.000 109.373,83.820 110.464,83.600 110.600 C 83.380 110.736,83.200 111.906,83.200 113.200 C 83.200 114.494,83.020 115.664,82.800 115.800 C 82.580 115.936,82.400 117.477,82.400 119.224 C 82.400 120.971,82.235 122.400,82.034 122.400 C 81.833 122.400,81.566 123.525,81.441 124.900 C 80.859 131.308,80.707 132.400,80.394 132.400 C 80.210 132.400,79.971 133.885,79.863 135.700 C 79.756 137.515,79.461 140.260,79.207 141.800 C 78.954 143.340,78.570 145.680,78.354 147.000 C 78.139 148.320,77.767 151.965,77.529 155.100 C 77.291 158.235,76.939 160.800,76.748 160.800 C 76.556 160.800,76.400 161.790,76.400 163.000 C 76.400 164.210,76.220 165.200,76.000 165.200 C 75.767 165.200,75.600 166.525,75.600 168.376 C 75.600 170.123,75.420 171.664,75.200 171.800 C 74.980 171.936,74.800 173.207,74.800 174.624 C 74.800 176.075,74.625 177.200,74.400 177.200 C 74.180 177.200,74.000 178.190,74.000 179.400 C 74.000 180.610,73.820 181.600,73.600 181.600 C 73.363 181.600,73.200 183.067,73.200 185.200 C 73.200 187.333,73.037 188.800,72.800 188.800 C 72.575 188.800,72.400 189.925,72.400 191.376 C 72.400 192.793,72.220 194.064,72.000 194.200 C 71.780 194.336,71.600 195.326,71.600 196.400 C 71.600 197.474,71.420 198.464,71.200 198.600 C 70.980 198.736,70.800 200.277,70.800 202.024 C 70.800 203.875,70.633 205.200,70.400 205.200 C 70.173 205.200,70.000 206.373,70.000 207.920 C 70.000 209.416,69.837 210.811,69.639 211.020 C 69.224 211.456,68.847 214.044,68.547 218.500 C 68.433 220.205,68.173 221.600,67.970 221.600 C 67.766 221.600,67.600 222.849,67.600 224.376 C 67.600 225.903,67.420 227.264,67.200 227.400 C 66.980 227.536,66.800 228.526,66.800 229.600 C 66.800 230.674,66.620 231.664,66.400 231.800 C 66.180 231.936,66.000 233.376,66.000 235.000 C 66.000 236.624,65.820 238.064,65.600 238.200 C 65.380 238.336,65.200 239.686,65.200 241.200 C 65.200 242.714,65.020 244.064,64.800 244.200 C 64.580 244.336,64.400 245.301,64.400 246.344 C 64.400 247.387,64.234 248.411,64.031 248.620 C 63.828 248.829,63.566 250.260,63.449 251.800 C 63.119 256.135,62.482 261.197,61.988 263.400 C 61.430 265.888,60.951 269.597,60.384 275.800 C 60.143 278.440,59.778 280.771,59.573 280.980 C 59.368 281.189,59.200 282.764,59.200 284.480 C 59.200 286.293,59.032 287.600,58.800 287.600 C 58.569 287.600,58.400 288.859,58.400 290.576 C 58.400 292.213,58.220 293.664,58.000 293.800 C 57.780 293.936,57.600 294.836,57.600 295.800 C 57.600 296.764,57.420 297.664,57.200 297.800 C 56.980 297.936,56.800 299.376,56.800 301.000 C 56.800 302.624,56.620 304.064,56.400 304.200 C 56.180 304.336,56.000 305.776,56.000 307.400 C 56.000 309.024,55.820 310.464,55.600 310.600 C 55.380 310.736,55.200 311.636,55.200 312.600 C 55.200 313.564,55.020 314.464,54.800 314.600 C 54.580 314.736,54.400 316.187,54.400 317.824 C 54.400 319.541,54.231 320.800,54.000 320.800 C 53.767 320.800,53.600 322.125,53.600 323.976 C 53.600 325.723,53.420 327.264,53.200 327.400 C 52.980 327.536,52.800 328.436,52.800 329.400 C 52.800 330.364,52.620 331.264,52.400 331.400 C 52.180 331.536,52.000 332.897,52.000 334.424 C 52.000 336.008,51.828 337.200,51.600 337.200 C 51.361 337.200,51.200 338.733,51.200 341.000 L 51.200 344.800 54.400 344.800 L 57.600 344.800 57.600 342.680 C 57.600 341.514,57.774 340.386,57.987 340.173 C 58.200 339.960,58.497 337.764,58.647 335.293 C 58.797 332.822,59.073 330.800,59.260 330.800 C 59.447 330.800,59.600 329.180,59.600 327.200 C 59.600 325.067,59.763 323.600,60.000 323.600 C 60.220 323.600,60.400 322.891,60.400 322.024 C 60.400 321.157,60.580 320.336,60.800 320.200 C 61.020 320.064,61.200 318.624,61.200 317.000 C 61.200 315.376,61.380 313.936,61.600 313.800 C 61.820 313.664,62.000 312.224,62.000 310.600 C 62.000 308.976,62.180 307.536,62.400 307.400 C 62.620 307.264,62.800 306.364,62.800 305.400 C 62.800 304.436,62.980 303.536,63.200 303.400 C 63.420 303.264,63.600 301.813,63.600 300.176 C 63.600 298.459,63.769 297.200,64.000 297.200 C 64.233 297.200,64.400 295.875,64.400 294.024 C 64.400 292.277,64.580 290.736,64.800 290.600 C 65.020 290.464,65.200 289.553,65.200 288.576 C 65.200 287.599,65.380 286.800,65.600 286.800 C 65.831 286.800,66.000 285.533,66.000 283.800 C 66.000 282.067,66.169 280.800,66.400 280.800 C 66.633 280.800,66.800 279.467,66.800 277.600 C 66.800 275.840,66.964 274.400,67.164 274.400 C 67.505 274.400,67.633 273.531,68.234 267.100 C 68.362 265.725,68.632 264.429,68.834 264.220 C 69.035 264.011,69.200 262.447,69.200 260.744 C 69.200 259.041,69.380 257.536,69.600 257.400 C 69.820 257.264,70.000 256.299,70.000 255.256 C 70.000 254.213,70.165 253.189,70.366 252.980 C 70.731 252.602,71.037 250.121,71.424 244.400 C 71.536 242.750,71.792 241.040,71.993 240.600 C 72.194 240.160,72.443 238.990,72.547 238.000 C 72.853 235.077,73.214 232.655,73.470 231.800 C 73.602 231.360,73.859 229.470,74.040 227.600 C 74.753 220.280,75.414 215.247,75.700 214.964 C 75.865 214.800,76.000 213.267,76.000 211.557 C 76.000 209.847,76.180 208.336,76.400 208.200 C 76.620 208.064,76.800 206.894,76.800 205.600 C 76.800 204.306,76.980 203.136,77.200 203.000 C 77.420 202.864,77.600 201.784,77.600 200.600 C 77.600 199.416,77.780 198.336,78.000 198.200 C 78.220 198.064,78.400 196.523,78.400 194.776 C 78.400 192.925,78.567 191.600,78.800 191.600 C 79.025 191.600,79.200 190.475,79.200 189.024 C 79.200 187.607,79.380 186.336,79.600 186.200 C 79.820 186.064,80.000 184.973,80.000 183.776 C 80.000 182.579,80.180 181.600,80.400 181.600 C 80.633 181.600,80.800 180.267,80.800 178.400 C 80.800 176.533,80.967 175.200,81.200 175.200 C 81.431 175.200,81.600 173.941,81.600 172.224 C 81.600 170.587,81.780 169.136,82.000 169.000 C 82.220 168.864,82.400 167.953,82.400 166.976 C 82.400 165.999,82.580 165.200,82.800 165.200 C 83.033 165.200,83.200 163.867,83.200 162.000 C 83.200 160.240,83.353 158.800,83.539 158.800 C 83.726 158.800,83.917 157.506,83.963 155.924 C 84.009 154.342,84.164 152.858,84.308 152.626 C 84.738 151.930,85.266 148.412,85.469 144.900 C 85.573 143.085,85.826 141.600,86.029 141.600 C 86.233 141.600,86.400 140.351,86.400 138.824 C 86.400 137.297,86.580 135.936,86.800 135.800 C 87.020 135.664,87.200 134.753,87.200 133.776 C 87.200 132.799,87.354 132.000,87.542 132.000 C 87.729 132.000,87.920 130.605,87.964 128.900 C 88.008 127.195,88.215 125.629,88.422 125.420 C 88.630 125.211,88.800 123.762,88.800 122.200 C 88.800 120.638,88.963 119.189,89.161 118.980 C 89.548 118.573,89.913 116.192,90.233 112.000 C 90.342 110.570,90.590 109.040,90.785 108.600 C 90.980 108.160,91.250 105.820,91.387 103.400 C 91.523 100.980,91.807 98.940,92.017 98.867 C 92.228 98.793,92.400 97.308,92.400 95.567 C 92.400 93.722,92.567 92.400,92.800 92.400 C 93.031 92.400,93.200 91.141,93.200 89.424 C 93.200 87.787,93.380 86.336,93.600 86.200 C 93.820 86.064,94.000 85.153,94.000 84.176 C 94.000 83.199,94.180 82.400,94.400 82.400 C 94.633 82.400,94.800 81.067,94.800 79.200 C 94.800 77.333,94.967 76.000,95.200 76.000 C 95.433 76.000,95.600 74.667,95.600 72.800 C 95.600 70.933,95.767 69.600,96.000 69.600 C 96.220 69.600,96.400 68.801,96.400 67.824 C 96.400 66.847,96.580 65.936,96.800 65.800 C 97.020 65.664,97.200 64.303,97.200 62.776 L 97.200 60.000 94.280 60.000 C 92.542 60.000,91.166 60.194,90.880 60.480 M325.300 60.265 C 325.025 60.376,324.800 60.722,324.800 61.033 C 324.800 61.345,324.620 61.600,324.400 61.600 C 324.180 61.600,324.000 62.050,324.000 62.600 C 324.000 63.150,323.820 63.600,323.600 63.600 C 323.380 63.600,323.200 63.960,323.200 64.400 C 323.200 64.840,323.065 65.201,322.900 65.203 C 322.541 65.207,321.600 67.144,321.600 67.880 C 321.600 68.166,321.420 68.400,321.200 68.400 C 320.980 68.400,320.800 68.760,320.800 69.200 C 320.800 69.640,320.620 70.000,320.400 70.000 C 320.180 70.000,320.000 70.360,320.000 70.800 C 320.000 71.240,319.820 71.600,319.600 71.600 C 319.380 71.600,319.200 71.960,319.200 72.400 C 319.200 72.840,319.020 73.200,318.800 73.200 C 318.580 73.200,318.400 73.560,318.400 74.000 C 318.400 74.440,318.220 74.800,318.000 74.800 C 317.780 74.800,317.600 75.160,317.600 75.600 C 317.600 76.040,317.420 76.400,317.200 76.400 C 316.980 76.400,316.800 76.760,316.800 77.200 C 316.800 77.640,316.620 78.000,316.400 78.000 C 316.180 78.000,316.000 78.360,316.000 78.800 C 316.000 79.240,315.820 79.600,315.600 79.600 C 315.380 79.600,315.200 79.870,315.200 80.200 C 315.200 80.530,315.020 80.800,314.800 80.800 C 314.580 80.800,314.400 81.149,314.400 81.576 C 314.400 82.003,314.220 82.464,314.000 82.600 C 313.780 82.736,313.600 83.204,313.600 83.640 C 313.600 84.077,313.267 84.791,312.861 85.227 C 312.454 85.664,311.874 86.781,311.573 87.710 C 311.271 88.640,310.794 89.638,310.512 89.929 C 310.230 90.219,310.000 90.794,310.000 91.205 C 310.000 91.616,309.820 92.064,309.600 92.200 C 309.380 92.336,309.200 92.797,309.200 93.224 C 309.200 93.651,309.020 94.000,308.800 94.000 C 308.580 94.000,308.400 94.270,308.400 94.600 C 308.400 94.930,308.220 95.200,308.000 95.200 C 307.780 95.200,307.600 95.650,307.600 96.200 C 307.600 96.750,307.420 97.200,307.200 97.200 C 306.980 97.200,306.800 97.560,306.800 98.000 C 306.800 98.440,306.665 98.801,306.500 98.803 C 306.141 98.807,305.200 100.744,305.200 101.480 C 305.200 101.766,305.020 102.000,304.800 102.000 C 304.580 102.000,304.400 102.360,304.400 102.800 C 304.400 103.240,304.220 103.600,304.000 103.600 C 303.780 103.600,303.600 103.960,303.600 104.400 C 303.600 104.840,303.420 105.200,303.200 105.200 C 302.980 105.200,302.800 105.560,302.800 106.000 C 302.800 106.440,302.620 106.800,302.400 106.800 C 302.180 106.800,302.000 107.160,302.000 107.600 C 302.000 108.040,301.820 108.400,301.600 108.400 C 301.380 108.400,301.200 108.760,301.200 109.200 C 301.200 109.640,301.062 110.000,300.893 110.000 C 300.724 110.000,300.158 110.990,299.636 112.200 C 299.113 113.410,298.532 114.400,298.343 114.400 C 298.154 114.400,298.000 114.749,298.000 115.176 C 298.000 115.603,297.820 116.064,297.600 116.200 C 297.380 116.336,297.200 116.887,297.200 117.424 C 297.200 117.961,297.053 118.400,296.874 118.400 C 296.457 118.400,294.800 121.488,294.800 122.266 C 294.800 122.591,294.530 123.127,294.200 123.457 C 293.870 123.787,293.600 124.404,293.600 124.829 C 293.600 125.253,293.420 125.600,293.200 125.600 C 292.980 125.600,292.800 126.050,292.800 126.600 C 292.800 127.150,292.654 127.600,292.475 127.600 C 292.296 127.600,291.902 128.230,291.600 129.000 C 291.298 129.770,290.904 130.400,290.725 130.400 C 290.546 130.400,290.400 130.850,290.400 131.400 C 290.400 131.950,290.220 132.400,290.000 132.400 C 289.780 132.400,289.600 132.760,289.600 133.200 C 289.600 133.640,289.465 134.001,289.300 134.003 C 288.941 134.007,288.000 135.944,288.000 136.680 C 288.000 136.966,287.820 137.200,287.600 137.200 C 287.380 137.200,287.200 137.560,287.200 138.000 C 287.200 138.440,287.020 138.800,286.800 138.800 C 286.580 138.800,286.400 139.160,286.400 139.600 C 286.400 140.040,286.220 140.400,286.000 140.400 C 285.780 140.400,285.600 140.760,285.600 141.200 C 285.600 141.640,285.420 142.000,285.200 142.000 C 284.980 142.000,284.800 142.345,284.800 142.767 C 284.800 143.188,284.665 143.593,284.500 143.667 C 284.335 143.740,283.775 144.700,283.256 145.800 C 282.737 146.900,282.152 148.115,281.956 148.500 C 281.062 150.257,280.860 150.675,280.361 151.800 C 280.068 152.460,279.507 153.478,279.114 154.062 C 278.721 154.646,278.400 155.501,278.400 155.962 C 278.400 156.423,278.220 156.800,278.000 156.800 C 277.780 156.800,277.600 157.147,277.600 157.571 C 277.600 157.996,277.330 158.613,277.000 158.943 C 276.670 159.273,276.400 159.916,276.400 160.371 C 276.400 160.827,276.220 161.200,276.000 161.200 C 275.780 161.200,275.600 161.478,275.600 161.817 C 275.600 162.156,275.240 162.820,274.800 163.292 C 274.360 163.764,274.000 164.567,274.000 165.075 C 274.000 165.584,273.820 166.000,273.600 166.000 C 273.380 166.000,273.200 166.360,273.200 166.800 C 273.200 167.240,273.065 167.601,272.900 167.603 C 272.541 167.607,271.600 169.544,271.600 170.280 C 271.600 170.566,271.420 170.800,271.200 170.800 C 270.980 170.800,270.800 171.160,270.800 171.600 C 270.800 172.040,270.620 172.400,270.400 172.400 C 270.180 172.400,270.000 172.760,270.000 173.200 C 270.000 173.640,269.820 174.000,269.600 174.000 C 269.380 174.000,269.200 174.360,269.200 174.800 C 269.200 175.240,269.020 175.600,268.800 175.600 C 268.580 175.600,268.400 175.945,268.400 176.367 C 268.400 176.788,268.265 177.193,268.100 177.267 C 267.840 177.382,267.111 178.784,265.482 182.300 C 265.252 182.795,264.915 183.200,264.732 183.200 C 264.550 183.200,264.400 183.549,264.400 183.976 C 264.400 184.403,264.220 184.864,264.000 185.000 C 263.780 185.136,263.600 185.687,263.600 186.224 C 263.600 186.761,263.453 187.200,263.274 187.200 C 262.857 187.200,261.200 190.288,261.200 191.066 C 261.200 191.391,260.930 191.927,260.600 192.257 C 260.270 192.587,260.000 193.204,260.000 193.629 C 260.000 194.053,259.820 194.400,259.600 194.400 C 259.380 194.400,259.200 194.850,259.200 195.400 C 259.200 195.950,259.065 196.401,258.900 196.403 C 258.541 196.407,257.600 198.344,257.600 199.080 C 257.600 199.366,257.420 199.600,257.200 199.600 C 256.980 199.600,256.800 199.960,256.800 200.400 C 256.800 200.840,256.620 201.200,256.400 201.200 C 256.180 201.200,256.000 201.560,256.000 202.000 C 256.000 202.440,255.820 202.800,255.600 202.800 C 255.380 202.800,255.200 203.160,255.200 203.600 C 255.200 204.040,255.020 204.400,254.800 204.400 C 254.580 204.400,254.400 204.760,254.400 205.200 C 254.400 205.640,254.220 206.000,254.000 206.000 C 253.780 206.000,253.600 206.360,253.600 206.800 C 253.600 207.240,253.420 207.600,253.200 207.600 C 252.980 207.600,252.800 207.960,252.800 208.400 C 252.800 208.840,252.665 209.201,252.500 209.203 C 252.141 209.207,251.200 211.144,251.200 211.880 C 251.200 212.166,251.020 212.400,250.800 212.400 C 250.580 212.400,250.400 212.670,250.400 213.000 C 250.400 213.330,250.220 213.600,250.000 213.600 C 249.780 213.600,249.600 213.834,249.600 214.120 C 249.600 214.856,248.659 216.793,248.300 216.797 C 248.135 216.799,248.000 217.160,248.000 217.600 C 248.000 218.040,247.820 218.400,247.600 218.400 C 247.380 218.400,247.200 218.752,247.200 219.182 C 247.200 219.613,246.660 220.881,246.000 222.000 C 245.340 223.119,244.800 224.387,244.800 224.818 C 244.800 225.248,244.634 225.600,244.432 225.600 C 244.229 225.600,243.945 226.140,243.800 226.800 C 243.655 227.460,243.371 228.000,243.168 228.000 C 242.966 228.000,242.800 228.450,242.800 229.000 C 242.800 229.550,242.620 230.000,242.400 230.000 C 242.180 230.000,242.000 230.278,242.000 230.617 C 242.000 230.956,241.640 231.620,241.200 232.092 C 240.760 232.564,240.400 233.367,240.400 233.875 C 240.400 234.384,240.220 234.800,240.000 234.800 C 239.780 234.800,239.600 235.160,239.600 235.600 C 239.600 236.040,239.420 236.400,239.200 236.400 C 238.980 236.400,238.800 236.760,238.800 237.200 C 238.800 237.640,238.620 238.000,238.400 238.000 C 238.180 238.000,238.000 238.360,238.000 238.800 C 238.000 239.240,237.820 239.600,237.600 239.600 C 237.380 239.600,237.200 239.960,237.200 240.400 C 237.200 240.840,237.020 241.200,236.800 241.200 C 236.580 241.200,236.400 241.560,236.400 242.000 C 236.400 242.440,236.265 242.801,236.100 242.803 C 235.741 242.807,234.800 244.744,234.800 245.480 C 234.800 245.766,234.620 246.000,234.400 246.000 C 234.180 246.000,234.000 246.270,234.000 246.600 C 234.000 246.930,233.820 247.200,233.600 247.200 C 233.380 247.200,233.200 247.549,233.200 247.976 C 233.200 248.403,233.020 248.864,232.800 249.000 C 232.580 249.136,232.400 249.563,232.400 249.948 C 232.400 250.334,232.040 251.036,231.600 251.508 C 231.160 251.980,230.800 252.633,230.800 252.960 C 230.800 253.286,230.620 253.664,230.400 253.800 C 230.180 253.936,230.000 254.404,230.000 254.840 C 230.000 255.277,229.640 256.020,229.200 256.492 C 228.760 256.964,228.400 257.666,228.400 258.052 C 228.400 258.437,228.234 258.855,228.031 258.981 C 227.828 259.106,227.543 259.747,227.399 260.405 C 227.255 261.062,226.971 261.600,226.768 261.600 C 226.566 261.600,226.400 262.050,226.400 262.600 C 226.400 263.150,226.220 263.600,226.000 263.600 C 225.780 263.600,225.600 263.878,225.600 264.217 C 225.600 264.556,225.240 265.220,224.800 265.692 C 224.360 266.164,224.000 266.967,224.000 267.475 C 224.000 267.984,223.820 268.400,223.600 268.400 C 223.380 268.400,223.200 268.760,223.200 269.200 C 223.200 269.640,223.020 270.000,222.800 270.000 C 222.580 270.000,222.400 270.360,222.400 270.800 C 222.400 271.240,222.220 271.600,222.000 271.600 C 221.780 271.600,221.600 271.960,221.600 272.400 C 221.600 272.840,221.420 273.200,221.200 273.200 C 220.980 273.200,220.800 273.560,220.800 274.000 C 220.800 274.440,220.620 274.800,220.400 274.800 C 220.180 274.800,220.000 275.160,220.000 275.600 C 220.000 276.040,219.865 276.401,219.700 276.401 C 219.535 276.402,218.950 277.392,218.400 278.600 C 217.850 279.808,217.265 280.798,217.100 280.799 C 216.935 280.799,216.800 281.160,216.800 281.600 C 216.800 282.040,216.620 282.400,216.400 282.400 C 216.180 282.400,216.000 282.816,216.000 283.325 C 216.000 283.833,215.640 284.636,215.200 285.108 C 214.031 286.362,214.420 290.784,215.700 290.797 C 215.865 290.799,216.000 291.117,216.000 291.504 C 216.000 292.610,217.418 293.321,218.400 292.707 C 218.840 292.432,219.200 291.901,219.200 291.527 C 219.200 291.153,219.380 290.736,219.600 290.600 C 219.820 290.464,220.000 290.086,220.000 289.760 C 220.000 289.433,220.360 288.780,220.800 288.308 C 221.240 287.836,221.600 287.033,221.600 286.525 C 221.600 286.016,221.780 285.600,222.000 285.600 C 222.220 285.600,222.400 285.313,222.400 284.963 C 222.400 284.613,222.760 283.869,223.200 283.309 C 223.640 282.750,224.000 281.956,224.000 281.546 C 224.000 281.136,224.180 280.800,224.400 280.800 C 224.620 280.800,224.800 280.474,224.800 280.076 C 224.800 279.679,225.064 279.004,225.387 278.576 C 225.710 278.149,225.980 277.395,225.987 276.900 C 225.994 276.405,226.146 276.000,226.325 276.000 C 226.504 276.000,226.898 275.370,227.200 274.600 C 227.502 273.830,227.896 273.200,228.075 273.200 C 228.254 273.200,228.400 272.840,228.400 272.400 C 228.400 271.960,228.580 271.600,228.800 271.600 C 229.020 271.600,229.200 271.366,229.200 271.080 C 229.200 270.344,230.141 268.407,230.500 268.403 C 230.665 268.401,230.800 268.040,230.800 267.600 C 230.800 267.160,230.980 266.800,231.200 266.800 C 231.420 266.800,231.600 266.566,231.600 266.280 C 231.600 265.544,232.541 263.607,232.900 263.603 C 233.065 263.601,233.200 263.240,233.200 262.800 C 233.200 262.360,233.380 262.000,233.600 262.000 C 233.820 262.000,234.000 261.584,234.000 261.075 C 234.000 260.567,234.315 259.793,234.700 259.355 C 235.697 258.222,236.400 256.912,236.400 256.189 C 236.400 255.847,236.746 255.196,237.168 254.742 C 237.590 254.289,238.170 253.126,238.455 252.159 C 238.741 251.192,239.115 250.400,239.287 250.400 C 239.459 250.400,239.600 250.040,239.600 249.600 C 239.600 249.160,239.736 248.800,239.902 248.800 C 240.296 248.800,241.111 246.943,241.441 245.297 C 241.583 244.584,241.857 244.000,242.050 244.000 C 242.243 244.000,242.400 243.640,242.400 243.200 C 242.400 242.760,242.546 242.400,242.725 242.400 C 242.904 242.400,243.298 241.770,243.600 241.000 C 243.902 240.230,244.296 239.600,244.475 239.600 C 244.654 239.600,244.800 239.240,244.800 238.800 C 244.800 238.360,244.980 238.000,245.200 238.000 C 245.420 238.000,245.600 237.640,245.600 237.200 C 245.600 236.760,245.780 236.400,246.000 236.400 C 246.220 236.400,246.400 236.040,246.400 235.600 C 246.400 235.160,246.580 234.800,246.800 234.800 C 247.020 234.800,247.200 234.440,247.200 234.000 C 247.200 233.560,247.380 233.200,247.600 233.200 C 247.820 233.200,248.000 232.840,248.000 232.400 C 248.000 231.960,248.180 231.600,248.400 231.600 C 248.620 231.600,248.800 231.240,248.800 230.800 C 248.800 230.360,248.980 230.000,249.200 230.000 C 249.420 230.000,249.600 229.640,249.600 229.200 C 249.600 228.760,249.780 228.400,250.000 228.400 C 250.220 228.400,250.400 228.040,250.400 227.600 C 250.400 227.160,250.580 226.800,250.800 226.800 C 251.020 226.800,251.200 226.440,251.200 226.000 C 251.200 225.560,251.335 225.199,251.500 225.197 C 251.906 225.193,252.800 223.214,252.800 222.320 C 252.800 221.924,252.980 221.600,253.200 221.600 C 253.420 221.600,253.600 221.322,253.600 220.983 C 253.600 220.644,253.960 219.980,254.400 219.508 C 254.840 219.036,255.200 218.233,255.200 217.725 C 255.200 217.216,255.380 216.800,255.600 216.800 C 255.820 216.800,256.000 216.513,256.000 216.163 C 256.000 215.813,256.360 215.069,256.800 214.509 C 257.240 213.950,257.600 213.156,257.600 212.746 C 257.600 212.336,257.780 212.000,258.000 212.000 C 258.220 212.000,258.400 211.674,258.400 211.276 C 258.400 210.879,258.664 210.204,258.987 209.776 C 259.310 209.349,259.580 208.685,259.587 208.300 C 259.594 207.915,259.780 207.600,260.000 207.600 C 260.220 207.600,260.400 207.366,260.400 207.080 C 260.400 206.344,261.341 204.407,261.700 204.403 C 261.865 204.401,262.000 204.040,262.000 203.600 C 262.000 203.160,262.180 202.800,262.400 202.800 C 262.620 202.800,262.800 202.440,262.800 202.000 C 262.800 201.560,262.980 201.200,263.200 201.200 C 263.420 201.200,263.600 200.840,263.600 200.400 C 263.600 199.960,263.780 199.600,264.000 199.600 C 264.220 199.600,264.400 199.240,264.400 198.800 C 264.400 198.360,264.580 198.000,264.800 198.000 C 265.020 198.000,265.200 197.766,265.200 197.480 C 265.200 196.744,266.141 194.807,266.500 194.803 C 266.665 194.801,266.800 194.440,266.800 194.000 C 266.800 193.560,266.980 193.200,267.200 193.200 C 267.420 193.200,267.600 192.832,267.600 192.383 C 267.600 191.934,267.960 191.180,268.400 190.708 C 268.840 190.236,269.200 189.534,269.200 189.148 C 269.200 188.763,269.380 188.336,269.600 188.200 C 269.820 188.064,270.000 187.686,270.000 187.360 C 270.000 187.033,270.360 186.380,270.800 185.908 C 271.240 185.436,271.600 184.633,271.600 184.125 C 271.600 183.616,271.780 183.200,272.000 183.200 C 272.220 183.200,272.400 182.913,272.400 182.563 C 272.400 182.213,272.760 181.469,273.200 180.909 C 273.640 180.350,274.000 179.556,274.000 179.146 C 274.000 178.736,274.180 178.400,274.400 178.400 C 274.620 178.400,274.800 178.131,274.800 177.803 C 274.800 176.969,276.123 174.000,276.494 174.000 C 276.662 174.000,276.800 173.640,276.800 173.200 C 276.800 172.760,276.980 172.400,277.200 172.400 C 277.420 172.400,277.600 172.040,277.600 171.600 C 277.600 171.160,277.780 170.800,278.000 170.800 C 278.220 170.800,278.400 170.440,278.400 170.000 C 278.400 169.560,278.580 169.200,278.800 169.200 C 279.020 169.200,279.200 168.966,279.200 168.680 C 279.200 167.944,280.141 166.007,280.500 166.003 C 280.665 166.001,280.800 165.640,280.800 165.200 C 280.800 164.760,280.980 164.400,281.200 164.400 C 281.420 164.400,281.600 164.166,281.600 163.880 C 281.600 163.144,282.541 161.207,282.900 161.203 C 283.065 161.201,283.200 160.840,283.200 160.400 C 283.200 159.960,283.380 159.600,283.600 159.600 C 283.820 159.600,284.000 159.150,284.000 158.600 C 284.000 158.050,284.180 157.600,284.400 157.600 C 284.620 157.600,284.800 157.330,284.800 157.000 C 284.800 156.670,284.935 156.399,285.100 156.397 C 285.506 156.393,286.400 154.414,286.400 153.520 C 286.400 153.124,286.580 152.800,286.800 152.800 C 287.020 152.800,287.200 152.522,287.200 152.183 C 287.200 151.844,287.560 151.180,288.000 150.708 C 288.440 150.236,288.800 149.433,288.800 148.925 C 288.800 148.416,288.980 148.000,289.200 148.000 C 289.420 148.000,289.600 147.640,289.600 147.200 C 289.600 146.760,289.751 146.400,289.936 146.400 C 290.384 146.400,291.088 144.805,291.420 143.036 C 291.568 142.246,291.849 141.600,292.045 141.600 C 292.240 141.600,292.400 141.330,292.400 141.000 C 292.400 140.670,292.580 140.400,292.800 140.400 C 293.020 140.400,293.200 140.040,293.200 139.600 C 293.200 139.160,293.380 138.800,293.600 138.800 C 293.820 138.800,294.000 138.440,294.000 138.000 C 294.000 137.560,294.180 137.200,294.400 137.200 C 294.620 137.200,294.800 136.840,294.800 136.400 C 294.800 135.960,294.980 135.600,295.200 135.600 C 295.420 135.600,295.600 135.240,295.600 134.800 C 295.600 134.360,295.780 134.000,296.000 134.000 C 296.220 134.000,296.400 133.640,296.400 133.200 C 296.400 132.760,296.580 132.400,296.800 132.400 C 297.020 132.400,297.200 132.040,297.200 131.600 C 297.200 131.160,297.380 130.800,297.600 130.800 C 297.820 130.800,298.000 130.440,298.000 130.000 C 298.000 129.560,298.180 129.200,298.400 129.200 C 298.620 129.200,298.800 128.750,298.800 128.200 C 298.800 127.650,298.980 127.200,299.200 127.200 C 299.420 127.200,299.600 126.930,299.600 126.600 C 299.600 126.270,299.780 126.000,300.000 126.000 C 300.220 126.000,300.400 125.640,300.400 125.200 C 300.400 124.760,300.580 124.400,300.800 124.400 C 301.020 124.400,301.200 124.032,301.200 123.583 C 301.200 123.134,301.560 122.380,302.000 121.908 C 302.440 121.436,302.800 120.734,302.800 120.348 C 302.800 119.963,302.980 119.536,303.200 119.400 C 303.420 119.264,303.600 118.886,303.600 118.560 C 303.600 118.233,303.960 117.580,304.400 117.108 C 304.840 116.636,305.200 115.833,305.200 115.325 C 305.200 114.816,305.380 114.400,305.600 114.400 C 305.820 114.400,306.000 114.117,306.000 113.771 C 306.000 113.426,306.279 112.864,306.620 112.523 C 306.960 112.182,307.343 111.385,307.470 110.752 C 307.596 110.118,307.843 109.600,308.018 109.600 C 308.193 109.600,308.455 109.062,308.599 108.405 C 308.743 107.747,309.028 107.106,309.231 106.981 C 309.434 106.855,309.600 106.403,309.600 105.976 C 309.600 105.549,309.780 105.200,310.000 105.200 C 310.220 105.200,310.400 104.840,310.400 104.400 C 310.400 103.960,310.580 103.600,310.800 103.600 C 311.020 103.600,311.200 103.240,311.200 102.800 C 311.200 102.360,311.380 102.000,311.600 102.000 C 311.820 102.000,312.000 101.640,312.000 101.200 C 312.000 100.760,312.180 100.400,312.400 100.400 C 312.620 100.400,312.800 100.040,312.800 99.600 C 312.800 99.160,312.980 98.800,313.200 98.800 C 313.420 98.800,313.600 98.440,313.600 98.000 C 313.600 97.560,313.780 97.200,314.000 97.200 C 314.220 97.200,314.400 96.840,314.400 96.400 C 314.400 95.960,314.580 95.600,314.800 95.600 C 315.020 95.600,315.200 95.366,315.200 95.080 C 315.200 94.344,316.141 92.407,316.500 92.403 C 316.665 92.401,316.800 92.040,316.800 91.600 C 316.800 91.160,316.980 90.800,317.200 90.800 C 317.420 90.800,317.600 90.365,317.600 89.833 C 317.600 89.302,317.741 88.807,317.913 88.733 C 318.462 88.500,320.000 85.584,320.000 84.777 C 320.000 84.350,320.144 84.000,320.320 84.000 C 320.718 84.000,322.400 80.594,322.400 79.789 C 322.400 79.465,322.551 79.200,322.736 79.200 C 322.921 79.200,323.310 78.480,323.600 77.600 C 323.890 76.720,324.271 76.000,324.446 76.000 C 324.621 76.000,324.882 75.370,325.026 74.600 C 325.171 73.830,325.449 73.200,325.645 73.200 C 325.840 73.200,326.000 72.840,326.000 72.400 C 326.000 71.960,326.180 71.600,326.400 71.600 C 326.620 71.600,326.800 71.240,326.800 70.800 C 326.800 70.360,326.980 70.000,327.200 70.000 C 327.420 70.000,327.600 69.640,327.600 69.200 C 327.600 68.760,327.780 68.400,328.000 68.400 C 328.220 68.400,328.400 68.040,328.400 67.600 C 328.400 67.160,328.580 66.800,328.800 66.800 C 329.020 66.800,329.200 66.440,329.200 66.000 C 329.200 65.560,329.380 65.200,329.600 65.200 C 329.820 65.200,330.000 64.840,330.000 64.400 C 330.000 63.960,330.180 63.600,330.400 63.600 C 330.620 63.600,330.800 63.240,330.800 62.800 C 330.800 62.360,330.980 62.000,331.200 62.000 C 331.420 62.000,331.600 61.550,331.600 61.000 C 331.600 60.019,327.187 59.504,325.300 60.265 M111.394 140.700 C 111.272 141.305,110.998 142.353,110.786 143.028 C 110.279 144.642,110.289 149.484,110.800 149.800 C 111.020 149.936,111.200 150.299,111.200 150.606 C 111.200 150.913,111.740 152.081,112.400 153.200 C 113.060 154.319,113.604 155.452,113.609 155.718 C 113.614 155.983,113.970 156.650,114.400 157.200 C 114.830 157.750,115.186 158.515,115.191 158.900 C 115.196 159.285,115.380 159.600,115.600 159.600 C 115.820 159.600,116.000 159.960,116.000 160.400 C 116.000 160.840,116.180 161.200,116.400 161.200 C 116.620 161.200,116.800 161.560,116.800 162.000 C 116.800 162.440,116.980 162.800,117.200 162.800 C 117.420 162.800,117.600 163.160,117.600 163.600 C 117.600 164.040,117.780 164.400,118.000 164.400 C 118.220 164.400,118.400 164.760,118.400 165.200 C 118.400 165.640,118.580 166.000,118.800 166.000 C 119.020 166.000,119.200 166.360,119.200 166.800 C 119.200 167.240,119.380 167.600,119.600 167.600 C 119.820 167.600,120.000 167.960,120.000 168.400 C 120.000 168.840,120.180 169.200,120.400 169.200 C 120.620 169.200,120.800 169.560,120.800 170.000 C 120.800 170.440,120.946 170.800,121.125 170.800 C 121.304 170.800,121.698 171.430,122.000 172.200 C 122.302 172.970,122.696 173.600,122.875 173.600 C 123.054 173.600,123.200 173.960,123.200 174.400 C 123.200 174.840,123.380 175.200,123.600 175.200 C 123.820 175.200,124.000 175.560,124.000 176.000 C 124.000 176.440,124.180 176.800,124.400 176.800 C 124.620 176.800,124.800 177.160,124.800 177.600 C 124.800 178.040,124.980 178.400,125.200 178.400 C 125.420 178.400,125.600 178.760,125.600 179.200 C 125.600 179.640,125.780 180.000,126.000 180.000 C 126.220 180.000,126.400 180.360,126.400 180.800 C 126.400 181.240,126.580 181.600,126.800 181.600 C 127.020 181.600,127.201 181.915,127.201 182.300 C 127.202 182.685,127.832 184.250,128.601 185.777 C 129.371 187.304,130.000 188.789,130.000 189.077 C 130.000 189.365,130.146 189.600,130.325 189.600 C 130.504 189.600,130.898 190.230,131.200 191.000 C 131.502 191.770,131.896 192.400,132.075 192.400 C 132.254 192.400,132.400 192.760,132.400 193.200 C 132.400 193.640,132.558 194.000,132.750 194.000 C 132.942 194.000,133.204 194.518,133.330 195.152 C 133.457 195.785,133.840 196.582,134.180 196.923 C 134.521 197.264,134.800 197.826,134.800 198.171 C 134.800 198.517,134.980 198.800,135.200 198.800 C 135.420 198.800,135.600 199.250,135.600 199.800 C 135.600 200.350,135.780 200.800,136.000 200.800 C 136.220 200.800,136.400 201.070,136.400 201.400 C 136.400 201.730,136.580 202.000,136.800 202.000 C 137.020 202.000,137.200 202.360,137.200 202.800 C 137.200 203.240,137.380 203.600,137.600 203.600 C 137.820 203.600,138.000 204.050,138.000 204.600 C 138.000 205.150,138.180 205.600,138.400 205.600 C 138.620 205.600,138.800 205.870,138.800 206.200 C 138.800 206.530,138.980 206.800,139.200 206.800 C 139.420 206.800,139.600 207.160,139.600 207.600 C 139.600 208.040,139.780 208.400,140.000 208.400 C 140.220 208.400,140.400 208.810,140.400 209.312 C 140.400 209.813,140.760 210.483,141.200 210.800 C 141.640 211.117,142.000 211.686,142.000 212.065 C 142.000 212.443,142.180 212.864,142.400 213.000 C 142.620 213.136,142.800 213.609,142.800 214.052 C 142.800 214.495,143.070 215.127,143.400 215.457 C 143.730 215.787,144.000 216.394,144.000 216.805 C 144.000 217.216,144.180 217.664,144.400 217.800 C 144.620 217.936,144.800 218.363,144.800 218.748 C 144.800 219.134,145.160 219.836,145.600 220.308 C 146.040 220.780,146.400 221.534,146.400 221.983 C 146.400 222.432,146.580 222.800,146.800 222.800 C 147.020 222.800,147.200 223.150,147.200 223.577 C 147.200 224.005,147.529 224.590,147.932 224.877 C 148.334 225.165,148.913 226.255,149.219 227.300 C 149.525 228.345,149.915 229.200,150.087 229.200 C 150.259 229.200,150.400 229.470,150.400 229.800 C 150.400 230.130,150.580 230.400,150.800 230.400 C 151.020 230.400,151.200 230.749,151.200 231.176 C 151.200 231.603,151.380 232.064,151.600 232.200 C 151.820 232.336,152.000 232.797,152.000 233.224 C 152.000 233.651,152.148 234.000,152.329 234.000 C 152.690 234.000,154.400 237.573,154.400 238.328 C 154.400 238.588,154.580 238.800,154.800 238.800 C 155.020 238.800,155.200 239.070,155.200 239.400 C 155.200 239.730,155.380 240.000,155.600 240.000 C 155.820 240.000,156.000 240.360,156.000 240.800 C 156.000 241.240,156.180 241.600,156.400 241.600 C 156.620 241.600,156.800 241.960,156.800 242.400 C 156.800 242.840,156.980 243.200,157.200 243.200 C 157.420 243.200,157.600 243.560,157.600 244.000 C 157.600 244.440,157.780 244.800,158.000 244.800 C 158.220 244.800,158.400 245.160,158.400 245.600 C 158.400 246.040,158.580 246.400,158.800 246.400 C 159.020 246.400,159.200 246.760,159.200 247.200 C 159.200 247.640,159.359 248.000,159.553 248.000 C 159.748 248.000,159.999 248.405,160.113 248.900 C 160.396 250.138,161.347 252.557,161.645 252.800 C 161.780 252.910,162.491 254.260,163.225 255.800 C 163.960 257.340,164.704 258.660,164.880 258.733 C 165.056 258.807,165.200 259.212,165.200 259.633 C 165.200 260.055,165.380 260.400,165.600 260.400 C 165.820 260.400,166.000 260.760,166.000 261.200 C 166.000 261.640,166.180 262.000,166.400 262.000 C 166.620 262.000,166.800 262.360,166.800 262.800 C 166.800 263.240,166.980 263.600,167.200 263.600 C 167.420 263.600,167.600 263.960,167.600 264.400 C 167.600 264.840,167.780 265.200,168.000 265.200 C 168.220 265.200,168.400 265.560,168.400 266.000 C 168.400 266.440,168.580 266.800,168.800 266.800 C 169.020 266.800,169.200 267.160,169.200 267.600 C 169.200 268.040,169.380 268.400,169.600 268.400 C 169.820 268.400,170.000 268.760,170.000 269.200 C 170.000 269.640,170.180 270.000,170.400 270.000 C 170.620 270.000,170.800 270.360,170.800 270.800 C 170.800 271.240,170.980 271.600,171.200 271.600 C 171.420 271.600,171.600 271.960,171.600 272.400 C 171.600 272.840,171.780 273.200,172.000 273.200 C 172.220 273.200,172.400 273.560,172.400 274.000 C 172.400 274.440,172.580 274.800,172.800 274.800 C 173.020 274.800,173.200 275.070,173.200 275.400 C 173.200 275.730,173.380 276.000,173.600 276.000 C 173.820 276.000,174.000 276.416,174.000 276.925 C 174.000 277.433,174.360 278.236,174.800 278.708 C 175.240 279.180,175.600 279.773,175.600 280.025 C 175.600 280.277,176.050 281.380,176.600 282.475 C 177.150 283.570,177.600 284.686,177.600 284.955 C 177.600 285.223,178.140 286.295,178.800 287.336 C 179.460 288.376,180.000 289.492,180.000 289.814 C 180.000 290.136,180.180 290.400,180.400 290.400 C 180.620 290.400,180.800 290.784,180.800 291.253 C 180.800 291.722,181.123 292.397,181.517 292.753 C 181.911 293.109,182.489 294.210,182.800 295.200 C 183.111 296.190,183.689 297.291,184.083 297.647 C 184.477 298.003,184.800 298.768,184.800 299.347 C 184.800 299.926,184.980 300.400,185.200 300.400 C 185.420 300.400,185.600 300.720,185.600 301.112 C 185.600 301.503,185.960 302.083,186.400 302.400 C 186.840 302.717,187.200 303.280,187.200 303.651 C 187.200 304.400,188.830 307.724,189.300 307.933 C 189.465 308.007,189.600 308.412,189.600 308.833 C 189.600 309.255,189.780 309.600,190.000 309.600 C 190.220 309.600,190.400 309.960,190.400 310.400 C 190.400 310.840,190.535 311.201,190.700 311.203 C 191.059 311.207,192.000 313.144,192.000 313.880 C 192.000 314.166,192.180 314.400,192.400 314.400 C 192.620 314.400,192.800 314.760,192.800 315.200 C 192.800 315.640,192.980 316.000,193.200 316.000 C 193.420 316.000,193.600 316.300,193.600 316.668 C 193.600 317.420,197.236 324.927,197.700 325.133 C 197.865 325.207,198.000 325.612,198.000 326.033 C 198.000 326.455,198.180 326.800,198.400 326.800 C 198.620 326.800,198.800 327.160,198.800 327.600 C 198.800 328.040,198.980 328.400,199.200 328.400 C 199.420 328.400,199.600 328.760,199.600 329.200 C 199.600 329.640,199.780 330.000,200.000 330.000 C 200.220 330.000,200.400 330.360,200.400 330.800 C 200.400 331.240,200.580 331.600,200.800 331.600 C 201.020 331.600,201.200 331.960,201.200 332.400 C 201.200 332.840,201.380 333.200,201.600 333.200 C 201.820 333.200,202.000 333.560,202.000 334.000 C 202.000 334.440,202.180 334.800,202.400 334.800 C 202.620 334.800,202.800 335.160,202.800 335.600 C 202.800 336.040,202.980 336.400,203.200 336.400 C 203.420 336.400,203.600 336.760,203.600 337.200 C 203.600 337.640,203.780 338.000,204.000 338.000 C 204.220 338.000,204.400 338.360,204.400 338.800 C 204.400 339.240,204.546 339.600,204.725 339.600 C 204.904 339.600,205.298 340.230,205.600 341.000 C 205.902 341.770,206.296 342.400,206.475 342.400 C 206.654 342.400,206.800 342.683,206.800 343.029 C 206.800 344.326,207.863 344.800,210.771 344.800 C 213.522 344.800,213.600 344.772,213.600 343.800 C 213.600 343.250,213.420 342.800,213.200 342.800 C 212.980 342.800,212.800 342.440,212.800 342.000 C 212.800 341.560,212.620 341.200,212.400 341.200 C 212.180 341.200,212.000 340.840,212.000 340.400 C 212.000 339.960,211.820 339.600,211.600 339.600 C 211.380 339.600,211.200 339.240,211.200 338.800 C 211.200 338.360,211.020 338.000,210.800 338.000 C 210.580 338.000,210.400 337.640,210.400 337.200 C 210.400 336.760,210.220 336.400,210.000 336.400 C 209.780 336.400,209.600 336.040,209.600 335.600 C 209.600 335.160,209.420 334.800,209.200 334.800 C 208.980 334.800,208.800 334.498,208.800 334.130 C 208.800 333.462,206.067 327.580,205.580 327.200 C 205.439 327.090,205.205 326.518,205.061 325.928 C 204.917 325.338,204.529 324.586,204.199 324.257 C 203.870 323.927,203.600 323.374,203.600 323.029 C 203.600 322.683,203.442 322.400,203.250 322.400 C 203.058 322.400,202.796 321.882,202.670 321.248 C 202.543 320.615,202.160 319.818,201.820 319.477 C 201.479 319.136,201.200 318.574,201.200 318.229 C 201.200 317.883,201.020 317.600,200.800 317.600 C 200.580 317.600,200.400 317.150,200.400 316.600 C 200.400 316.050,200.254 315.600,200.075 315.600 C 199.896 315.600,199.502 314.970,199.200 314.200 C 198.898 313.430,198.504 312.800,198.325 312.800 C 198.146 312.800,198.000 312.350,198.000 311.800 C 198.000 311.250,197.820 310.800,197.600 310.800 C 197.380 310.800,197.200 310.564,197.200 310.275 C 197.200 309.987,196.840 309.364,196.400 308.892 C 195.960 308.420,195.600 307.677,195.600 307.240 C 195.600 306.804,195.420 306.336,195.200 306.200 C 194.980 306.064,194.800 305.643,194.800 305.265 C 194.800 304.886,194.440 304.317,194.000 304.000 C 193.530 303.661,193.200 302.965,193.200 302.312 C 193.200 301.700,193.020 301.200,192.800 301.200 C 192.580 301.200,192.400 300.840,192.400 300.400 C 192.400 299.960,192.227 299.600,192.015 299.600 C 191.804 299.600,191.448 298.925,191.224 298.100 C 191.000 297.275,190.363 295.935,189.809 295.121 C 189.254 294.308,188.800 293.374,188.800 293.045 C 188.800 292.716,188.620 292.336,188.400 292.200 C 188.180 292.064,188.000 291.686,188.000 291.360 C 188.000 291.033,187.640 290.380,187.200 289.908 C 186.760 289.436,186.400 288.633,186.400 288.125 C 186.400 287.616,186.220 287.200,186.000 287.200 C 185.780 287.200,185.600 286.922,185.600 286.583 C 185.600 286.244,185.240 285.580,184.800 285.108 C 184.360 284.636,184.000 283.833,184.000 283.325 C 184.000 282.816,183.820 282.400,183.600 282.400 C 183.380 282.400,183.200 282.040,183.200 281.600 C 183.200 281.160,183.050 280.800,182.868 280.800 C 182.526 280.800,182.066 279.976,181.136 277.700 C 180.844 276.985,180.469 276.400,180.302 276.400 C 180.136 276.400,180.000 276.040,180.000 275.600 C 180.000 275.160,179.820 274.800,179.600 274.800 C 179.380 274.800,179.200 274.440,179.200 274.000 C 179.200 273.560,179.020 273.200,178.800 273.200 C 178.580 273.200,178.400 272.840,178.400 272.400 C 178.400 271.960,178.220 271.600,178.000 271.600 C 177.780 271.600,177.600 271.240,177.600 270.800 C 177.600 270.360,177.420 270.000,177.200 270.000 C 176.980 270.000,176.800 269.640,176.800 269.200 C 176.800 268.760,176.620 268.400,176.400 268.400 C 176.180 268.400,176.000 268.040,176.000 267.600 C 176.000 267.160,175.820 266.800,175.600 266.800 C 175.380 266.800,175.200 266.498,175.200 266.130 C 175.200 265.353,172.381 259.465,171.914 259.267 C 171.741 259.193,171.600 258.788,171.600 258.367 C 171.600 257.945,171.420 257.600,171.200 257.600 C 170.980 257.600,170.800 257.240,170.800 256.800 C 170.800 256.360,170.620 256.000,170.400 256.000 C 170.180 256.000,170.000 255.640,170.000 255.200 C 170.000 254.760,169.820 254.400,169.600 254.400 C 169.380 254.400,169.200 254.166,169.200 253.880 C 169.200 253.144,168.259 251.207,167.900 251.203 C 167.735 251.201,167.600 250.840,167.600 250.400 C 167.600 249.960,167.420 249.600,167.200 249.600 C 166.980 249.600,166.800 249.184,166.800 248.675 C 166.800 248.167,166.440 247.364,166.000 246.892 C 165.560 246.420,165.200 245.756,165.200 245.417 C 165.200 245.078,165.020 244.800,164.800 244.800 C 164.580 244.800,164.400 244.474,164.400 244.075 C 164.400 243.677,164.040 242.964,163.600 242.492 C 163.160 242.020,162.800 241.356,162.800 241.017 C 162.800 240.678,162.620 240.400,162.400 240.400 C 162.180 240.400,162.000 239.984,162.000 239.475 C 162.000 238.967,161.640 238.164,161.200 237.692 C 160.760 237.220,160.400 236.556,160.400 236.217 C 160.400 235.878,160.220 235.600,160.000 235.600 C 159.780 235.600,159.600 235.288,159.600 234.906 C 159.600 233.885,155.993 226.400,155.501 226.400 C 155.335 226.400,155.200 225.860,155.200 225.200 C 155.200 224.540,155.042 224.000,154.849 224.000 C 154.655 224.000,154.273 223.460,154.000 222.800 C 153.727 222.140,153.345 221.600,153.151 221.600 C 152.958 221.600,152.800 221.060,152.800 220.400 C 152.800 219.740,152.620 219.200,152.400 219.200 C 152.180 219.200,152.000 218.964,152.000 218.675 C 152.000 218.387,151.640 217.764,151.200 217.292 C 150.760 216.820,150.400 215.976,150.400 215.417 C 150.400 214.858,150.220 214.400,150.000 214.400 C 149.780 214.400,149.600 214.080,149.600 213.688 C 149.600 213.297,149.240 212.717,148.800 212.400 C 148.360 212.083,148.000 211.413,148.000 210.912 C 148.000 210.410,147.820 210.000,147.600 210.000 C 147.380 210.000,147.200 209.640,147.200 209.200 C 147.200 208.760,147.020 208.400,146.800 208.400 C 146.580 208.400,146.400 208.130,146.400 207.800 C 146.400 207.470,146.220 207.200,146.000 207.200 C 145.780 207.200,145.600 206.750,145.600 206.200 C 145.600 205.650,145.420 205.200,145.200 205.200 C 144.980 205.200,144.800 204.840,144.800 204.400 C 144.800 203.960,144.665 203.599,144.500 203.597 C 144.141 203.593,143.200 201.656,143.200 200.920 C 143.200 200.634,143.020 200.400,142.800 200.400 C 142.580 200.400,142.400 200.040,142.400 199.600 C 142.400 199.160,142.220 198.800,142.000 198.800 C 141.780 198.800,141.600 198.503,141.600 198.140 C 141.600 197.363,139.572 193.061,139.115 192.867 C 138.942 192.793,138.800 192.388,138.800 191.967 C 138.800 191.545,138.620 191.200,138.400 191.200 C 138.180 191.200,138.000 190.840,138.000 190.400 C 138.000 189.960,137.820 189.600,137.600 189.600 C 137.380 189.600,137.200 189.240,137.200 188.800 C 137.200 188.360,137.020 188.000,136.800 188.000 C 136.580 188.000,136.400 187.640,136.400 187.200 C 136.400 186.760,136.220 186.400,136.000 186.400 C 135.780 186.400,135.600 186.040,135.600 185.600 C 135.600 185.160,135.420 184.800,135.200 184.800 C 134.980 184.800,134.800 184.440,134.800 184.000 C 134.800 183.560,134.620 183.200,134.400 183.200 C 134.180 183.200,134.000 182.840,134.000 182.400 C 134.000 181.960,133.820 181.600,133.600 181.600 C 133.380 181.600,133.200 181.240,133.200 180.800 C 133.200 180.360,133.020 180.000,132.800 180.000 C 132.580 180.000,132.400 179.730,132.400 179.400 C 132.400 179.070,132.220 178.800,132.000 178.800 C 131.780 178.800,131.600 178.440,131.600 178.000 C 131.600 177.560,131.442 177.200,131.250 177.200 C 131.058 177.200,130.796 176.682,130.670 176.048 C 130.543 175.415,130.160 174.618,129.820 174.277 C 129.479 173.936,129.200 173.374,129.200 173.029 C 129.200 172.683,129.020 172.400,128.800 172.400 C 128.580 172.400,128.400 171.984,128.400 171.475 C 128.400 170.967,128.040 170.164,127.600 169.692 C 127.160 169.220,126.800 168.556,126.800 168.217 C 126.800 167.878,126.620 167.600,126.400 167.600 C 126.180 167.600,126.000 167.060,126.000 166.400 C 126.000 165.740,125.865 165.199,125.700 165.199 C 125.535 165.198,124.683 163.668,123.808 161.799 C 122.932 159.929,122.077 158.400,121.908 158.400 C 121.738 158.400,121.596 157.995,121.591 157.500 C 121.586 157.005,121.230 156.150,120.800 155.600 C 120.370 155.050,120.014 154.375,120.009 154.100 C 120.004 153.825,119.820 153.600,119.600 153.600 C 119.380 153.600,119.200 153.276,119.200 152.880 C 119.200 151.986,118.306 150.007,117.900 150.003 C 117.735 150.001,117.600 149.730,117.600 149.400 C 117.600 149.070,117.420 148.800,117.200 148.800 C 116.980 148.800,116.800 148.260,116.800 147.600 C 116.800 146.940,116.620 146.400,116.400 146.400 C 116.180 146.400,116.000 146.130,116.000 145.800 C 116.000 145.470,115.820 145.200,115.600 145.200 C 115.380 145.200,115.200 144.930,115.200 144.600 C 115.200 144.270,115.020 144.000,114.800 144.000 C 114.580 144.000,114.400 143.550,114.400 143.000 C 114.400 142.450,114.220 142.000,114.000 142.000 C 113.780 142.000,113.600 141.717,113.600 141.371 C 113.600 139.675,111.716 139.102,111.394 140.700 M320.100 142.210 C 319.605 142.739,319.200 143.538,319.200 143.986 C 319.200 144.434,319.020 144.800,318.800 144.800 C 318.580 144.800,318.400 145.078,318.400 145.417 C 318.400 145.756,318.040 146.420,317.600 146.892 C 316.716 147.841,316.384 154.896,317.200 155.400 C 317.420 155.536,317.600 156.436,317.600 157.400 C 317.600 158.364,317.780 159.264,318.000 159.400 C 318.220 159.536,318.400 160.976,318.400 162.600 C 318.400 164.224,318.580 165.664,318.800 165.800 C 319.020 165.936,319.200 167.567,319.200 169.424 C 319.200 171.408,319.365 172.800,319.600 172.800 C 319.820 172.800,320.000 173.700,320.000 174.800 C 320.000 175.900,320.180 176.800,320.400 176.800 C 320.631 176.800,320.800 178.059,320.800 179.776 C 320.800 181.413,320.980 182.864,321.200 183.000 C 321.420 183.136,321.600 184.677,321.600 186.424 C 321.600 188.275,321.767 189.600,322.000 189.600 C 322.220 189.600,322.400 190.590,322.400 191.800 C 322.400 193.010,322.580 194.000,322.800 194.000 C 323.028 194.000,323.200 195.192,323.200 196.776 C 323.200 198.303,323.380 199.664,323.600 199.800 C 323.820 199.936,324.000 201.567,324.000 203.424 C 324.000 205.408,324.165 206.800,324.400 206.800 C 324.620 206.800,324.800 207.790,324.800 209.000 C 324.800 210.210,324.980 211.200,325.200 211.200 C 325.429 211.200,325.600 212.400,325.600 214.000 C 325.600 215.600,325.771 216.800,326.000 216.800 C 326.235 216.800,326.400 218.178,326.400 220.133 C 326.400 221.967,326.535 223.600,326.700 223.762 C 326.865 223.925,327.231 226.250,327.514 228.929 C 328.334 236.694,328.732 240.019,329.177 242.800 C 330.016 248.054,330.447 251.074,330.804 254.200 C 331.004 255.960,331.365 258.660,331.605 260.200 C 331.845 261.740,332.137 264.125,332.255 265.500 C 332.372 266.875,332.633 268.000,332.834 268.000 C 333.035 268.000,333.200 269.530,333.200 271.400 C 333.200 273.400,333.365 274.800,333.600 274.800 C 333.829 274.800,334.000 276.000,334.000 277.600 C 334.000 279.200,334.171 280.400,334.400 280.400 C 334.620 280.400,334.800 281.379,334.800 282.576 C 334.800 283.773,334.980 284.864,335.200 285.000 C 335.420 285.136,335.600 286.677,335.600 288.424 C 335.600 290.275,335.767 291.600,336.000 291.600 C 336.228 291.600,336.400 292.792,336.400 294.376 C 336.400 295.903,336.580 297.264,336.800 297.400 C 337.020 297.536,337.200 298.627,337.200 299.824 C 337.200 301.021,337.380 302.000,337.600 302.000 C 337.835 302.000,338.000 303.400,338.000 305.400 C 338.000 307.400,338.165 308.800,338.400 308.800 C 338.628 308.800,338.800 309.992,338.800 311.576 C 338.800 313.103,338.980 314.464,339.200 314.600 C 339.420 314.736,339.600 315.827,339.600 317.024 C 339.600 318.221,339.780 319.200,340.000 319.200 C 340.235 319.200,340.400 320.600,340.400 322.600 C 340.400 324.600,340.565 326.000,340.800 326.000 C 341.028 326.000,341.200 327.192,341.200 328.776 C 341.200 330.303,341.380 331.664,341.600 331.800 C 341.820 331.936,342.000 332.926,342.000 334.000 C 342.000 335.074,342.180 336.064,342.400 336.200 C 342.620 336.336,342.800 337.967,342.800 339.824 C 342.800 341.808,342.965 343.200,343.200 343.200 C 343.420 343.200,343.600 343.560,343.600 344.000 C 343.600 344.969,349.552 345.264,349.652 344.300 C 349.800 342.865,349.473 339.783,349.160 339.667 C 348.962 339.593,348.800 338.119,348.800 336.390 C 348.800 334.662,348.620 333.136,348.400 333.000 C 348.180 332.864,348.000 331.323,348.000 329.576 C 348.000 327.725,347.833 326.400,347.600 326.400 C 347.380 326.400,347.200 325.500,347.200 324.400 C 347.200 323.300,347.020 322.400,346.800 322.400 C 346.567 322.400,346.400 321.067,346.400 319.200 C 346.400 317.333,346.233 316.000,346.000 316.000 C 345.767 316.000,345.600 314.675,345.600 312.824 C 345.600 311.077,345.420 309.536,345.200 309.400 C 344.980 309.264,344.800 308.364,344.800 307.400 C 344.800 306.436,344.620 305.536,344.400 305.400 C 344.180 305.264,344.000 303.824,344.000 302.200 C 344.000 300.576,343.820 299.136,343.600 299.000 C 343.380 298.864,343.200 297.334,343.200 295.600 C 343.200 293.866,343.020 292.336,342.800 292.200 C 342.580 292.064,342.400 291.153,342.400 290.176 C 342.400 289.199,342.245 288.400,342.056 288.400 C 341.867 288.400,341.583 285.859,341.426 282.754 C 341.268 279.649,340.859 275.914,340.517 274.454 C 339.936 271.978,339.474 268.238,338.976 262.000 C 338.862 260.570,338.606 259.040,338.407 258.600 C 337.982 257.661,337.633 255.292,337.345 251.400 C 337.231 249.860,336.972 248.429,336.769 248.220 C 336.566 248.011,336.400 246.447,336.400 244.744 C 336.400 243.041,336.220 241.536,336.000 241.400 C 335.780 241.264,335.600 240.263,335.600 239.176 C 335.600 238.089,335.420 237.200,335.200 237.200 C 334.969 237.200,334.800 235.941,334.800 234.224 C 334.800 232.587,334.620 231.136,334.400 231.000 C 334.180 230.864,334.000 229.334,334.000 227.600 C 334.000 225.866,333.820 224.336,333.600 224.200 C 333.380 224.064,333.200 223.063,333.200 221.976 C 333.200 220.889,333.020 220.000,332.800 220.000 C 332.569 220.000,332.400 218.741,332.400 217.024 C 332.400 215.387,332.220 213.936,332.000 213.800 C 331.780 213.664,331.600 212.033,331.600 210.176 C 331.600 208.319,331.437 206.800,331.237 206.800 C 330.881 206.800,330.595 204.874,330.155 199.500 C 330.034 198.015,329.769 196.800,329.567 196.800 C 329.365 196.800,329.200 195.180,329.200 193.200 C 329.200 191.067,329.037 189.600,328.800 189.600 C 328.580 189.600,328.400 188.736,328.400 187.680 C 328.400 186.624,328.235 185.589,328.032 185.380 C 327.683 185.019,327.465 183.195,326.962 176.400 C 326.840 174.750,326.573 173.229,326.370 173.020 C 326.166 172.811,326.000 171.521,326.000 170.153 C 326.000 168.786,325.833 167.607,325.629 167.533 C 325.425 167.460,325.132 164.970,324.977 162.000 C 324.823 159.030,324.558 156.420,324.388 156.200 C 324.218 155.980,323.980 154.810,323.860 153.600 C 323.739 152.390,323.440 150.230,323.196 148.800 C 322.951 147.370,322.657 145.075,322.542 143.700 C 322.305 140.879,321.695 140.507,320.100 142.210 " stroke="none" fill="#f89922" fill-rule="evenodd"></path></g></svg>